<mxfile host="app.diagrams.net" agent="Mozilla/5.0 (Macintosh; Intel Mac OS X 10_15_7) AppleWebKit/605.1.15 (KHTML, like Gecko) Version/18.3 Safari/605.1.15" version="26.0.14">
  <diagram name="Page-1" id="e3dnm04kQXYzXDw6RmIC">
    <mxGraphModel dx="2363" dy="1357" grid="1" gridSize="10" guides="1" tooltips="1" connect="1" arrows="1" fold="1" page="1" pageScale="1" pageWidth="850" pageHeight="1100" math="0" shadow="0">
      <root>
        <mxCell id="0" />
        <mxCell id="1" parent="0" />
        <mxCell id="QESn6ehhHo-WRE0hssqF-38" value="Public subnet" style="points=[[0,0],[0.25,0],[0.5,0],[0.75,0],[1,0],[1,0.25],[1,0.5],[1,0.75],[1,1],[0.75,1],[0.5,1],[0.25,1],[0,1],[0,0.75],[0,0.5],[0,0.25]];outlineConnect=0;gradientColor=none;html=1;whiteSpace=wrap;fontSize=12;fontStyle=0;container=1;pointerEvents=0;collapsible=0;recursiveResize=0;shape=mxgraph.aws4.group;grIcon=mxgraph.aws4.group_security_group;grStroke=0;strokeColor=#7AA116;fillColor=#F2F6E8;verticalAlign=top;align=left;spacingLeft=30;fontColor=#248814;dashed=0;" parent="1" vertex="1">
          <mxGeometry x="490" y="415.5" width="220" height="814.5" as="geometry" />
        </mxCell>
        <mxCell id="QESn6ehhHo-WRE0hssqF-46" style="edgeStyle=orthogonalEdgeStyle;rounded=0;orthogonalLoop=1;jettySize=auto;html=1;startArrow=none;startFill=0;" parent="QESn6ehhHo-WRE0hssqF-38" source="QESn6ehhHo-WRE0hssqF-47" target="QESn6ehhHo-WRE0hssqF-48" edge="1">
          <mxGeometry relative="1" as="geometry">
            <mxPoint x="48" y="251.49999999999977" as="sourcePoint" />
            <mxPoint x="90" y="251.49999999999977" as="targetPoint" />
            <Array as="points" />
          </mxGeometry>
        </mxCell>
        <mxCell id="QESn6ehhHo-WRE0hssqF-47" value="Internet Gateway" style="sketch=0;outlineConnect=0;fontColor=#232F3E;gradientColor=none;fillColor=#8C4FFF;strokeColor=none;dashed=0;verticalLabelPosition=bottom;verticalAlign=top;align=center;html=1;fontSize=12;fontStyle=0;aspect=fixed;pointerEvents=1;shape=mxgraph.aws4.internet_gateway;" parent="QESn6ehhHo-WRE0hssqF-38" vertex="1">
          <mxGeometry x="-40" y="212.5" width="78" height="78" as="geometry" />
        </mxCell>
        <mxCell id="QESn6ehhHo-WRE0hssqF-48" value="NAT Gateway" style="sketch=0;outlineConnect=0;fontColor=#232F3E;gradientColor=none;fillColor=#8C4FFF;strokeColor=none;dashed=0;verticalLabelPosition=bottom;verticalAlign=top;align=center;html=1;fontSize=12;fontStyle=0;aspect=fixed;pointerEvents=1;shape=mxgraph.aws4.nat_gateway;" parent="QESn6ehhHo-WRE0hssqF-38" vertex="1">
          <mxGeometry x="90" y="212.5" width="78" height="78" as="geometry" />
        </mxCell>
        <mxCell id="QESn6ehhHo-WRE0hssqF-37" value="Private subnet" style="points=[[0,0],[0.25,0],[0.5,0],[0.75,0],[1,0],[1,0.25],[1,0.5],[1,0.75],[1,1],[0.75,1],[0.5,1],[0.25,1],[0,1],[0,0.75],[0,0.5],[0,0.25]];outlineConnect=0;gradientColor=none;html=1;whiteSpace=wrap;fontSize=12;fontStyle=0;container=1;pointerEvents=0;collapsible=0;recursiveResize=0;shape=mxgraph.aws4.group;grIcon=mxgraph.aws4.group_security_group;grStroke=0;strokeColor=#00A4A6;fillColor=#E6F6F7;verticalAlign=top;align=left;spacingLeft=30;fontColor=#147EBA;dashed=0;" parent="1" vertex="1">
          <mxGeometry x="725.5" y="415.5" width="679" height="819" as="geometry" />
        </mxCell>
        <mxCell id="QESn6ehhHo-WRE0hssqF-42" value="" style="group" parent="QESn6ehhHo-WRE0hssqF-37" vertex="1" connectable="0">
          <mxGeometry x="164.5" y="64.5" width="350" height="430" as="geometry" />
        </mxCell>
        <mxCell id="NsaXK657haBb-UHeoxgA-12" value="&lt;div align=&quot;right&quot;&gt;&lt;br&gt;&lt;/div&gt;" style="rounded=0;whiteSpace=wrap;html=1;fillColor=none;fontColor=#333333;strokeColor=#ED7100;align=left;" parent="QESn6ehhHo-WRE0hssqF-42" vertex="1">
          <mxGeometry width="350" height="430" as="geometry" />
        </mxCell>
        <mxCell id="QESn6ehhHo-WRE0hssqF-41" value="" style="sketch=0;points=[[0,0,0],[0.25,0,0],[0.5,0,0],[0.75,0,0],[1,0,0],[0,1,0],[0.25,1,0],[0.5,1,0],[0.75,1,0],[1,1,0],[0,0.25,0],[0,0.5,0],[0,0.75,0],[1,0.25,0],[1,0.5,0],[1,0.75,0]];outlineConnect=0;fontColor=#232F3E;fillColor=#ED7100;strokeColor=#ffffff;dashed=0;verticalLabelPosition=bottom;verticalAlign=top;align=center;html=1;fontSize=12;fontStyle=0;aspect=fixed;shape=mxgraph.aws4.resourceIcon;resIcon=mxgraph.aws4.eks;" parent="QESn6ehhHo-WRE0hssqF-42" vertex="1">
          <mxGeometry width="32.5" height="32.5" as="geometry" />
        </mxCell>
        <mxCell id="NsaXK657haBb-UHeoxgA-14" value="&lt;div align=&quot;right&quot;&gt;AWS EKS&lt;/div&gt;" style="text;html=1;align=center;verticalAlign=middle;whiteSpace=wrap;rounded=0;movable=1;resizable=1;rotatable=1;deletable=1;editable=1;locked=0;connectable=1;" parent="QESn6ehhHo-WRE0hssqF-42" vertex="1">
          <mxGeometry x="32.5" width="60" height="30" as="geometry" />
        </mxCell>
        <mxCell id="NsaXK657haBb-UHeoxgA-18" value="Tuva EMPI frontend" style="text;html=1;align=center;verticalAlign=middle;whiteSpace=wrap;rounded=0;" parent="QESn6ehhHo-WRE0hssqF-42" vertex="1">
          <mxGeometry x="64.69" y="230" width="69.38" height="30" as="geometry" />
        </mxCell>
        <mxCell id="zLk7eeK1KL7ILKzQ-9vV-1" value="" style="aspect=fixed;sketch=0;html=1;dashed=0;whitespace=wrap;verticalLabelPosition=bottom;verticalAlign=top;fillColor=#2875E2;strokeColor=#ffffff;points=[[0.005,0.63,0],[0.1,0.2,0],[0.9,0.2,0],[0.5,0,0],[0.995,0.63,0],[0.72,0.99,0],[0.5,1,0],[0.28,0.99,0]];shape=mxgraph.kubernetes.icon2;kubernetesLabel=1;prIcon=pod" vertex="1" parent="QESn6ehhHo-WRE0hssqF-42">
          <mxGeometry x="190" y="230" width="81.25" height="78" as="geometry" />
        </mxCell>
        <mxCell id="NsaXK657haBb-UHeoxgA-17" value="" style="aspect=fixed;sketch=0;html=1;dashed=0;whitespace=wrap;verticalLabelPosition=bottom;verticalAlign=top;fillColor=#2875E2;strokeColor=#ffffff;points=[[0.005,0.63,0],[0.1,0.2,0],[0.9,0.2,0],[0.5,0,0],[0.995,0.63,0],[0.72,0.99,0],[0.5,1,0],[0.28,0.99,0]];shape=mxgraph.kubernetes.icon2;kubernetesLabel=1;prIcon=pod" parent="QESn6ehhHo-WRE0hssqF-42" vertex="1">
          <mxGeometry x="58.76" y="140" width="81.25" height="78" as="geometry" />
        </mxCell>
        <mxCell id="zLk7eeK1KL7ILKzQ-9vV-4" value="Tuva EMPI API" style="text;html=1;align=center;verticalAlign=middle;whiteSpace=wrap;rounded=0;" vertex="1" parent="QESn6ehhHo-WRE0hssqF-42">
          <mxGeometry x="195.31" y="308" width="70.63" height="50" as="geometry" />
        </mxCell>
        <mxCell id="zLk7eeK1KL7ILKzQ-9vV-5" value="" style="aspect=fixed;sketch=0;html=1;dashed=0;whitespace=wrap;verticalLabelPosition=bottom;verticalAlign=top;fillColor=#2875E2;strokeColor=#ffffff;points=[[0.005,0.63,0],[0.1,0.2,0],[0.9,0.2,0],[0.5,0,0],[0.995,0.63,0],[0.72,0.99,0],[0.5,1,0],[0.28,0.99,0]];shape=mxgraph.kubernetes.icon2;kubernetesLabel=1;prIcon=pod" vertex="1" parent="QESn6ehhHo-WRE0hssqF-42">
          <mxGeometry x="190" y="32.5" width="81.25" height="78" as="geometry" />
        </mxCell>
        <mxCell id="zLk7eeK1KL7ILKzQ-9vV-8" value="Tuva EMPI matching service" style="text;html=1;align=center;verticalAlign=middle;whiteSpace=wrap;rounded=0;" vertex="1" parent="QESn6ehhHo-WRE0hssqF-42">
          <mxGeometry x="200.63" y="110.5" width="60.63" height="60" as="geometry" />
        </mxCell>
        <mxCell id="zLk7eeK1KL7ILKzQ-9vV-9" style="edgeStyle=orthogonalEdgeStyle;rounded=0;orthogonalLoop=1;jettySize=auto;html=1;exitX=0.5;exitY=0;exitDx=0;exitDy=0;exitPerimeter=0;entryX=0.995;entryY=0.63;entryDx=0;entryDy=0;entryPerimeter=0;" edge="1" parent="QESn6ehhHo-WRE0hssqF-42" source="zLk7eeK1KL7ILKzQ-9vV-1" target="zLk7eeK1KL7ILKzQ-9vV-5">
          <mxGeometry relative="1" as="geometry">
            <Array as="points">
              <mxPoint x="231" y="200" />
              <mxPoint x="291" y="200" />
              <mxPoint x="291" y="82" />
            </Array>
          </mxGeometry>
        </mxCell>
        <mxCell id="QESn6ehhHo-WRE0hssqF-49" value="Application Load Balancer" style="sketch=0;outlineConnect=0;fontColor=#232F3E;gradientColor=none;fillColor=#8C4FFF;strokeColor=none;dashed=0;verticalLabelPosition=bottom;verticalAlign=top;align=center;html=1;fontSize=12;fontStyle=0;aspect=fixed;pointerEvents=1;shape=mxgraph.aws4.application_load_balancer;" parent="QESn6ehhHo-WRE0hssqF-37" vertex="1">
          <mxGeometry x="46.5" y="212.5" width="78" height="78" as="geometry" />
        </mxCell>
        <mxCell id="QESn6ehhHo-WRE0hssqF-51" style="edgeStyle=orthogonalEdgeStyle;rounded=0;orthogonalLoop=1;jettySize=auto;html=1;startArrow=none;startFill=0;entryX=0.171;entryY=0.435;entryDx=0;entryDy=0;entryPerimeter=0;" parent="QESn6ehhHo-WRE0hssqF-37" source="QESn6ehhHo-WRE0hssqF-49" target="NsaXK657haBb-UHeoxgA-12" edge="1">
          <mxGeometry relative="1" as="geometry">
            <mxPoint x="224.5" y="250.5" as="targetPoint" />
            <Array as="points" />
          </mxGeometry>
        </mxCell>
        <mxCell id="zLk7eeK1KL7ILKzQ-9vV-2" style="edgeStyle=orthogonalEdgeStyle;rounded=0;orthogonalLoop=1;jettySize=auto;html=1;entryX=0.005;entryY=0.63;entryDx=0;entryDy=0;entryPerimeter=0;startArrow=none;startFill=0;" edge="1" parent="QESn6ehhHo-WRE0hssqF-37" source="QESn6ehhHo-WRE0hssqF-49" target="zLk7eeK1KL7ILKzQ-9vV-1">
          <mxGeometry relative="1" as="geometry">
            <Array as="points">
              <mxPoint x="195" y="275" />
              <mxPoint x="195" y="344" />
            </Array>
          </mxGeometry>
        </mxCell>
        <mxCell id="QESn6ehhHo-WRE0hssqF-7" value="Application AWS Account" style="points=[[0,0],[0.25,0],[0.5,0],[0.75,0],[1,0],[1,0.25],[1,0.5],[1,0.75],[1,1],[0.75,1],[0.5,1],[0.25,1],[0,1],[0,0.75],[0,0.5],[0,0.25]];outlineConnect=0;gradientColor=none;html=1;whiteSpace=wrap;fontSize=12;fontStyle=0;container=0;pointerEvents=0;collapsible=0;recursiveResize=0;shape=mxgraph.aws4.group;grIcon=mxgraph.aws4.group_aws_cloud_alt;strokeColor=#232F3E;fillColor=none;verticalAlign=top;align=left;spacingLeft=30;fontColor=#232F3E;dashed=0;" parent="1" vertex="1">
          <mxGeometry x="280" y="340" width="1530" height="970" as="geometry" />
        </mxCell>
        <mxCell id="QESn6ehhHo-WRE0hssqF-44" style="edgeStyle=orthogonalEdgeStyle;rounded=0;orthogonalLoop=1;jettySize=auto;html=1;startArrow=none;startFill=0;" parent="1" source="QESn6ehhHo-WRE0hssqF-31" target="QESn6ehhHo-WRE0hssqF-43" edge="1">
          <mxGeometry relative="1" as="geometry" />
        </mxCell>
        <mxCell id="QESn6ehhHo-WRE0hssqF-31" value="Users" style="sketch=0;pointerEvents=1;shadow=0;dashed=0;html=1;strokeColor=none;labelPosition=center;verticalLabelPosition=bottom;verticalAlign=top;align=center;fillColor=#505050;shape=mxgraph.mscae.intune.user_group" parent="1" vertex="1">
          <mxGeometry x="130" y="632" width="100" height="70" as="geometry" />
        </mxCell>
        <mxCell id="QESn6ehhHo-WRE0hssqF-33" value="&lt;span style=&quot;color: rgb(0, 0, 0);&quot;&gt;VPC&lt;/span&gt;" style="points=[[0,0],[0.25,0],[0.5,0],[0.75,0],[1,0],[1,0.25],[1,0.5],[1,0.75],[1,1],[0.75,1],[0.5,1],[0.25,1],[0,1],[0,0.75],[0,0.5],[0,0.25]];outlineConnect=0;gradientColor=none;html=1;whiteSpace=wrap;fontSize=12;fontStyle=0;container=0;pointerEvents=0;collapsible=0;recursiveResize=0;shape=mxgraph.aws4.group;grIcon=mxgraph.aws4.group_vpc2;strokeColor=#8C4FFF;fillColor=none;verticalAlign=top;align=left;spacingLeft=30;fontColor=#AAB7B8;dashed=0;" parent="1" vertex="1">
          <mxGeometry x="420" y="380" width="1029" height="890" as="geometry" />
        </mxCell>
        <mxCell id="QESn6ehhHo-WRE0hssqF-5" value="VPC Endpoint" style="sketch=0;outlineConnect=0;fontColor=#232F3E;gradientColor=none;fillColor=#8C4FFF;strokeColor=none;dashed=0;verticalLabelPosition=bottom;verticalAlign=top;align=center;html=1;fontSize=12;fontStyle=0;aspect=fixed;pointerEvents=1;shape=mxgraph.aws4.endpoints;" parent="1" vertex="1">
          <mxGeometry x="1368" y="670" width="68" height="68" as="geometry" />
        </mxCell>
        <mxCell id="QESn6ehhHo-WRE0hssqF-17" value="VPC Endpoint" style="sketch=0;outlineConnect=0;fontColor=#232F3E;gradientColor=none;fillColor=#8C4FFF;strokeColor=none;dashed=0;verticalLabelPosition=bottom;verticalAlign=top;align=center;html=1;fontSize=12;fontStyle=0;aspect=fixed;pointerEvents=1;shape=mxgraph.aws4.endpoints;" parent="1" vertex="1">
          <mxGeometry x="1368" y="780" width="68" height="68" as="geometry" />
        </mxCell>
        <mxCell id="QESn6ehhHo-WRE0hssqF-19" style="edgeStyle=orthogonalEdgeStyle;rounded=0;orthogonalLoop=1;jettySize=auto;html=1;strokeColor=#000000;fillColor=#0050ef;exitX=0.9;exitY=0.2;exitDx=0;exitDy=0;exitPerimeter=0;" parent="1" source="zLk7eeK1KL7ILKzQ-9vV-1" target="QESn6ehhHo-WRE0hssqF-52" edge="1">
          <mxGeometry relative="1" as="geometry">
            <mxPoint x="1550" y="700" as="targetPoint" />
            <Array as="points">
              <mxPoint x="1153" y="710" />
            </Array>
          </mxGeometry>
        </mxCell>
        <mxCell id="QESn6ehhHo-WRE0hssqF-16" style="edgeStyle=orthogonalEdgeStyle;rounded=0;orthogonalLoop=1;jettySize=auto;html=1;exitX=0.989;exitY=0.782;exitDx=0;exitDy=0;exitPerimeter=0;fillColor=#0050ef;strokeColor=#000000;entryX=0;entryY=0.5;entryDx=0;entryDy=0;entryPerimeter=0;" parent="1" target="QESn6ehhHo-WRE0hssqF-54" edge="1" source="zLk7eeK1KL7ILKzQ-9vV-1">
          <mxGeometry relative="1" as="geometry">
            <mxPoint x="1101.25375" y="689.9999999999999" as="sourcePoint" />
            <mxPoint x="1570.41" y="1100" as="targetPoint" />
            <Array as="points">
              <mxPoint x="1190" y="940" />
              <mxPoint x="1470" y="940" />
              <mxPoint x="1470" y="990" />
              <mxPoint x="1572" y="990" />
            </Array>
          </mxGeometry>
        </mxCell>
        <mxCell id="QESn6ehhHo-WRE0hssqF-2" style="edgeStyle=orthogonalEdgeStyle;rounded=0;orthogonalLoop=1;jettySize=auto;html=1;" parent="1" source="NsaXK657haBb-UHeoxgA-12" edge="1">
          <mxGeometry relative="1" as="geometry">
            <mxPoint x="1240" y="524.91" as="sourcePoint" />
            <mxPoint x="1900" y="440" as="targetPoint" />
            <Array as="points">
              <mxPoint x="1490" y="525" />
              <mxPoint x="1490" y="440" />
            </Array>
          </mxGeometry>
        </mxCell>
        <mxCell id="QESn6ehhHo-WRE0hssqF-45" style="edgeStyle=orthogonalEdgeStyle;rounded=0;orthogonalLoop=1;jettySize=auto;html=1;startArrow=none;startFill=0;" parent="1" source="QESn6ehhHo-WRE0hssqF-43" target="QESn6ehhHo-WRE0hssqF-47" edge="1">
          <mxGeometry relative="1" as="geometry">
            <mxPoint x="450" y="666.9999999999998" as="targetPoint" />
          </mxGeometry>
        </mxCell>
        <mxCell id="QESn6ehhHo-WRE0hssqF-43" value="WAF" style="sketch=0;points=[[0,0,0],[0.25,0,0],[0.5,0,0],[0.75,0,0],[1,0,0],[0,1,0],[0.25,1,0],[0.5,1,0],[0.75,1,0],[1,1,0],[0,0.25,0],[0,0.5,0],[0,0.75,0],[1,0.25,0],[1,0.5,0],[1,0.75,0]];outlineConnect=0;fontColor=#232F3E;fillColor=#DD344C;strokeColor=#ffffff;dashed=0;verticalLabelPosition=bottom;verticalAlign=top;align=center;html=1;fontSize=12;fontStyle=0;aspect=fixed;shape=mxgraph.aws4.resourceIcon;resIcon=mxgraph.aws4.waf;" parent="1" vertex="1">
          <mxGeometry x="320" y="628" width="78" height="78" as="geometry" />
        </mxCell>
        <mxCell id="QESn6ehhHo-WRE0hssqF-52" value="Secrets Manager" style="sketch=0;points=[[0,0,0],[0.25,0,0],[0.5,0,0],[0.75,0,0],[1,0,0],[0,1,0],[0.25,1,0],[0.5,1,0],[0.75,1,0],[1,1,0],[0,0.25,0],[0,0.5,0],[0,0.75,0],[1,0.25,0],[1,0.5,0],[1,0.75,0]];outlineConnect=0;fontColor=#232F3E;fillColor=#DD344C;strokeColor=#ffffff;dashed=0;verticalLabelPosition=bottom;verticalAlign=top;align=center;html=1;fontSize=12;fontStyle=0;aspect=fixed;shape=mxgraph.aws4.resourceIcon;resIcon=mxgraph.aws4.secrets_manager;" parent="1" vertex="1">
          <mxGeometry x="1572" y="665" width="78" height="78" as="geometry" />
        </mxCell>
        <mxCell id="QESn6ehhHo-WRE0hssqF-53" value="CloudWatch" style="sketch=0;points=[[0,0,0],[0.25,0,0],[0.5,0,0],[0.75,0,0],[1,0,0],[0,1,0],[0.25,1,0],[0.5,1,0],[0.75,1,0],[1,1,0],[0,0.25,0],[0,0.5,0],[0,0.75,0],[1,0.25,0],[1,0.5,0],[1,0.75,0]];points=[[0,0,0],[0.25,0,0],[0.5,0,0],[0.75,0,0],[1,0,0],[0,1,0],[0.25,1,0],[0.5,1,0],[0.75,1,0],[1,1,0],[0,0.25,0],[0,0.5,0],[0,0.75,0],[1,0.25,0],[1,0.5,0],[1,0.75,0]];outlineConnect=0;fontColor=#232F3E;fillColor=#E7157B;strokeColor=#ffffff;dashed=0;verticalLabelPosition=bottom;verticalAlign=top;align=center;html=1;fontSize=12;fontStyle=0;aspect=fixed;shape=mxgraph.aws4.resourceIcon;resIcon=mxgraph.aws4.cloudwatch_2;" parent="1" vertex="1">
          <mxGeometry x="1572" y="812" width="78" height="78" as="geometry" />
        </mxCell>
        <mxCell id="QESn6ehhHo-WRE0hssqF-54" value="S3" style="sketch=0;points=[[0,0,0],[0.25,0,0],[0.5,0,0],[0.75,0,0],[1,0,0],[0,1,0],[0.25,1,0],[0.5,1,0],[0.75,1,0],[1,1,0],[0,0.25,0],[0,0.5,0],[0,0.75,0],[1,0.25,0],[1,0.5,0],[1,0.75,0]];outlineConnect=0;fontColor=#232F3E;fillColor=#7AA116;strokeColor=#ffffff;dashed=0;verticalLabelPosition=bottom;verticalAlign=top;align=center;html=1;fontSize=12;fontStyle=0;aspect=fixed;shape=mxgraph.aws4.resourceIcon;resIcon=mxgraph.aws4.s3;" parent="1" vertex="1">
          <mxGeometry x="1572" y="950" width="78" height="78" as="geometry" />
        </mxCell>
        <mxCell id="QESn6ehhHo-WRE0hssqF-56" style="edgeStyle=orthogonalEdgeStyle;rounded=0;orthogonalLoop=1;jettySize=auto;html=1;startArrow=classic;startFill=1;endArrow=none;" parent="1" source="QESn6ehhHo-WRE0hssqF-55" target="QESn6ehhHo-WRE0hssqF-49" edge="1">
          <mxGeometry relative="1" as="geometry" />
        </mxCell>
        <mxCell id="QESn6ehhHo-WRE0hssqF-55" value="Cognito" style="sketch=0;points=[[0,0,0],[0.25,0,0],[0.5,0,0],[0.75,0,0],[1,0,0],[0,1,0],[0.25,1,0],[0.5,1,0],[0.75,1,0],[1,1,0],[0,0.25,0],[0,0.5,0],[0,0.75,0],[1,0.25,0],[1,0.5,0],[1,0.75,0]];outlineConnect=0;fontColor=#232F3E;fillColor=#DD344C;strokeColor=#ffffff;dashed=0;verticalLabelPosition=bottom;verticalAlign=top;align=center;html=1;fontSize=12;fontStyle=0;aspect=fixed;shape=mxgraph.aws4.resourceIcon;resIcon=mxgraph.aws4.cognito;" parent="1" vertex="1">
          <mxGeometry x="320" y="472" width="78" height="78" as="geometry" />
        </mxCell>
        <mxCell id="QESn6ehhHo-WRE0hssqF-61" style="edgeStyle=orthogonalEdgeStyle;rounded=0;orthogonalLoop=1;jettySize=auto;html=1;" parent="1" source="QESn6ehhHo-WRE0hssqF-60" target="QESn6ehhHo-WRE0hssqF-54" edge="1">
          <mxGeometry relative="1" as="geometry">
            <Array as="points">
              <mxPoint x="1710" y="1187" />
              <mxPoint x="1710" y="989" />
            </Array>
          </mxGeometry>
        </mxCell>
        <mxCell id="QESn6ehhHo-WRE0hssqF-62" value="ETL" style="edgeLabel;html=1;align=center;verticalAlign=middle;resizable=0;points=[];" parent="QESn6ehhHo-WRE0hssqF-61" vertex="1" connectable="0">
          <mxGeometry x="-0.3951" y="6" relative="1" as="geometry">
            <mxPoint x="6" y="-64" as="offset" />
          </mxGeometry>
        </mxCell>
        <mxCell id="QESn6ehhHo-WRE0hssqF-63" value="Tuva EMPI Example AWS Deployment Architecture" style="text;html=1;align=center;verticalAlign=middle;whiteSpace=wrap;rounded=0;fontSize=20;" parent="1" vertex="1">
          <mxGeometry x="902.5" y="270" width="325" height="30" as="geometry" />
        </mxCell>
        <mxCell id="QESn6ehhHo-WRE0hssqF-50" style="edgeStyle=orthogonalEdgeStyle;rounded=0;orthogonalLoop=1;jettySize=auto;html=1;startArrow=none;startFill=0;" parent="1" source="QESn6ehhHo-WRE0hssqF-48" target="QESn6ehhHo-WRE0hssqF-49" edge="1">
          <mxGeometry relative="1" as="geometry">
            <Array as="points">
              <mxPoint x="720" y="667" />
              <mxPoint x="720" y="667" />
            </Array>
          </mxGeometry>
        </mxCell>
        <mxCell id="QESn6ehhHo-WRE0hssqF-18" value="VPC Endpoint" style="sketch=0;outlineConnect=0;fontColor=#232F3E;gradientColor=none;fillColor=#8C4FFF;strokeColor=none;dashed=0;verticalLabelPosition=bottom;verticalAlign=top;align=center;html=1;fontSize=12;fontStyle=0;aspect=fixed;pointerEvents=1;shape=mxgraph.aws4.endpoints;" parent="1" vertex="1">
          <mxGeometry x="1368" y="910" width="68" height="68" as="geometry" />
        </mxCell>
        <mxCell id="QESn6ehhHo-WRE0hssqF-15" style="edgeStyle=orthogonalEdgeStyle;rounded=0;orthogonalLoop=1;jettySize=auto;html=1;exitX=0.995;exitY=0.63;exitDx=0;exitDy=0;exitPerimeter=0;fillColor=#0050ef;strokeColor=#000000;entryX=0;entryY=0.5;entryDx=0;entryDy=0;entryPerimeter=0;" parent="1" target="QESn6ehhHo-WRE0hssqF-53" edge="1" source="zLk7eeK1KL7ILKzQ-9vV-1">
          <mxGeometry relative="1" as="geometry">
            <mxPoint x="1092.88125" y="663.812" as="sourcePoint" />
            <mxPoint x="1570" y="950.5555555555557" as="targetPoint" />
            <Array as="points">
              <mxPoint x="1210" y="759" />
              <mxPoint x="1210" y="810" />
              <mxPoint x="1471" y="810" />
              <mxPoint x="1471" y="851" />
            </Array>
          </mxGeometry>
        </mxCell>
        <mxCell id="zLk7eeK1KL7ILKzQ-9vV-10" value="" style="shape=image;html=1;verticalAlign=top;verticalLabelPosition=bottom;labelBackgroundColor=#ffffff;imageAspect=0;aspect=fixed;image=https://cdn4.iconfinder.com/data/icons/ionicons/512/icon-social-github-128.png" vertex="1" parent="1">
          <mxGeometry x="1906" y="393" width="88" height="88" as="geometry" />
        </mxCell>
        <mxCell id="zLk7eeK1KL7ILKzQ-9vV-14" value="Github container registry" style="text;html=1;align=center;verticalAlign=middle;whiteSpace=wrap;rounded=0;" vertex="1" parent="1">
          <mxGeometry x="1920" y="481" width="60" height="60" as="geometry" />
        </mxCell>
        <mxCell id="QESn6ehhHo-WRE0hssqF-60" value="Data Warehouse" style="shape=cylinder3;whiteSpace=wrap;html=1;boundedLbl=1;backgroundOutline=1;size=15;" parent="1" vertex="1">
          <mxGeometry x="1561" y="1145" width="100" height="85" as="geometry" />
        </mxCell>
      </root>
    </mxGraphModel>
  </diagram>
</mxfile>
